# xmcd
#
# Track frame offsets:
#	150
#	26057
#	55527
#	83646
#	113764
#	137959
#	165708
#	206315
#
# Disc length: 3111 seconds
# Revision: 0
# Processed by: cddbd v1.5.2PL0 Copyright (c) Steve Scherf et al.
# Submitted via: dBpowerAMP V12.0
#
DISCID=600c2508
DTITLE=Jo Harman and Company - Live at the Royal Albert Hall
DYEAR=2014
DGENRE=Blues Female
TTITLE0=Through the Night (Live)
TTITLE1=Cold Heart (Live)
TTITLE2=Ain't No Love in the Heart of the City (Live)
TTITLE3=(This Is My) Amnesty (Live)
TTITLE4=Underneath the River (Live)
TTITLE5=Sweet Man Moses (Live)
TTITLE6=Sideways (Live)
TTITLE7=Better Woman (Live)
EXTD=
EXTT0=
EXTT1=
EXTT2=
EXTT3=
EXTT4=
EXTT5=
EXTT6=
EXTT7=
PLAYORDER=
